inDegrees=no
num_controls=7
num_derivatives=13
num_iterations=97
num_multipliers=7
num_parameters=0
num_slacks=7
num_states=26
objective=0.343681
objective_accelerations=0.007712
objective_balance=0.000890
objective_effort=0.008642
objective_height=0.324073
objective_ligament=0.002364
solver_duration=1028.442522
status=Solve_Succeeded
success=true
DataType=double
version=3
OpenSimVersion=4.5
endheader
time	/jointset/ground_pelvis/pelvis_tilt/value	/jointset/ground_pelvis/pelvis_tx/value	/jointset/ground_pelvis/pelvis_ty/value	/jointset/hip_r/hip_flexion_r/value	/jointset/hip_r/hip_adduction_r/value	/jointset/hip_r/hip_rotation_r/value	/jointset/back/lumbar_extension/value	/jointset/patellofemoral_r/patellar_flexion_r/value	/jointset/knee_r/knee_flexion_r/value	/jointset/knee_r/knee_adduction_r/value	/jointset/knee_r/knee_rotation_r/value	/jointset/ankle_r/ankle_angle_r/value	/jointset/subtalar_r/subtalar_angle_r/value	/jointset/ground_pelvis/pelvis_tilt/speed	/jointset/ground_pelvis/pelvis_tx/speed	/jointset/ground_pelvis/pelvis_ty/speed	/jointset/hip_r/hip_flexion_r/speed	/jointset/hip_r/hip_adduction_r/speed	/jointset/hip_r/hip_rotation_r/speed	/jointset/back/lumbar_extension/speed	/jointset/patellofemoral_r/patellar_flexion_r/speed	/jointset/knee_r/knee_flexion_r/speed	/jointset/knee_r/knee_adduction_r/speed	/jointset/knee_r/knee_rotation_r/speed	/jointset/ankle_r/ankle_angle_r/speed	/jointset/subtalar_r/subtalar_angle_r/speed	/forceset/tau_hip_flexion_r	/forceset/tau_hip_adduction_r	/forceset/tau_hip_rotation_r	/forceset/tau_knee_flexion_r	/forceset/tau_ankle_angle_r	/forceset/tau_subtalar_angle_r	/forceset/tau_lumbar_extension	lambda_cid13_p0	lambda_cid14_p0	lambda_cid14_p1	lambda_cid14_p2	lambda_cid14_p3	lambda_cid14_p4	lambda_cid14_p5	/jointset/ground_pelvis/pelvis_tilt/accel	/jointset/ground_pelvis/pelvis_tx/accel	/jointset/ground_pelvis/pelvis_ty/accel	/jointset/hip_r/hip_flexion_r/accel	/jointset/hip_r/hip_adduction_r/accel	/jointset/hip_r/hip_rotation_r/accel	/jointset/back/lumbar_extension/accel	/jointset/patellofemoral_r/patellar_flexion_r/accel	/jointset/knee_r/knee_flexion_r/accel	/jointset/knee_r/knee_adduction_r/accel	/jointset/knee_r/knee_rotation_r/accel	/jointset/ankle_r/ankle_angle_r/accel	/jointset/subtalar_r/subtalar_angle_r/accel	gamma_cid13_p0	gamma_cid14_p0	gamma_cid14_p1	gamma_cid14_p2	gamma_cid14_p3	gamma_cid14_p4	gamma_cid14_p5
1.5	0.1047448384156548	0.1230043836656547	0.9288689664272973	0.1625711129373119	-0.2354079806814111	-0.2022234419391158	-0.5234054926872861	0.3822504969918203	0.3822504969916199	0.1114194111307966	0.1744795980529738	0.1677850704031583	0.07755697454348108	-0.09278207818753414	0.06738695519765078	0.04178878840946471	-0.2498969537726311	-0.006300818479699994	-0.1033190978806391	0.7395249271245826	-0.4838745624671708	-0.4838745624671922	0.1269140920431091	0.0001057310673250648	-0.1776024308965429	-0.06181274771472853	-0.01813053737372585	-0.0006615949093670377	0.01348687442039731	-0.1806364160064527	-0.02217683299072778	-0.0451751962796987	0.1160875975384409	-30.09722947317879	-53.1586931713712	-23.89894719249112	-1.51149725871417	5.249586136452844	-657.9308018449049	45.9025684951409	-0.1311471610955303	-0.0117359941021648	-0.04279087422958325	0.02540316029779546	-0.02647909340903459	-0.08783474735265002	0.4052755829010906	-0.2447760619913791	-0.2447760619913775	0.1456887475600262	-0.006034811868754607	-0.1811652314567605	-0.0748812362436958	2.272119820596131e-08	1.289985153821457e-08	-1.579457819702468e-07	1.411247105275794e-07	9.536534450956017e-09	3.170642316127679e-08	-1.778355442689671e-07
1.51	0.1038107070407177	0.1236775466364981	0.9292846446607668	0.1600735362938907	-0.235472657907373	-0.2032609292343041	-0.5159910733990672	0.3774001125515918	0.3774001125517162	0.1126964548256053	0.1744806714264447	0.1660000602522126	0.07693467385540435	-0.09402338598585896	0.06723260638304455	0.04133970554891846	-0.2495855983048968	-0.006636617776986187	-0.1041622432007738	0.7432523866089907	-0.4861288018126687	-0.4861288018127556	0.1284832312080603	0.0001076161698875565	-0.1793761579241797	-0.06264208394183986	-0.01539465611561714	-0.002373016590283834	0.01345709502537931	-0.1811464813817834	-0.01987384131933709	-0.04606477416922508	0.1131332071907198	-30.13435210578628	-52.44092211898982	-24.14055804683207	-1.494744721700121	5.11021541321998	-657.3576939906702	46.07093645947069	-0.1175000584699763	-0.0192372317669408	-0.04703269710368495	0.03891946141450271	-0.0374229012797943	-0.080109112241825	0.340499544752662	-0.2047241286970017	-0.2047241287068244	0.1608010364224401	0.00312676664455401	-0.1719563087487393	-0.08617317902896512	2.364023063630409e-08	1.358344398889911e-08	-1.656485782292586e-07	1.450266385655475e-07	9.781956748479453e-09	3.455730121135592e-08	-1.8463315735868e-07
1.52	0.1028647870939454	0.1243487755378701	0.9296956189246033	0.1575800567494288	-0.2355407516369879	-0.204306358920273	-0.5085425758332955	0.3725293904663398	0.37252939046678	0.1139888448191729	0.174481728969996	0.1641980168569241	0.07630423713243953	-0.09513979255494996	0.06700014130338569	0.04084799448288072	-0.2490775339810312	-0.006984119209928401	-0.1049075760368267	0.7463405826350705	-0.4879420914728877	-0.4879420914730402	0.1299833517914015	0.0001025650854829198	-0.1810090797650814	-0.06343995469231549	-0.01265877485750606	-0.004084438271195303	0.01342731563032251	-0.181656546757113	-0.01757084964794556	-0.0469543520587437	0.1101788168430001	-30.16898532510513	-51.72386641984189	-24.38024875132109	-1.480634751334217	4.964546224588508	-656.8034272171172	46.2654925813628	-0.1061669152487295	-0.02735924711272951	-0.05131651532787683	0.06474493152406231	-0.02881952054024134	-0.06827225053630671	0.2774228912354438	-0.1565861249356001	-0.1565861249355978	0.1318850312380147	-0.007422049262169926	-0.1530041941097831	-0.06858814091657139	2.448395725514936e-08	1.42156986564482e-08	-1.728789464120648e-07	1.485581791497063e-07	1.000616698645939e-08	3.73576823791071e-08	-1.908940720893858e-07
1.53	0.1019083633489682	0.1250172933095248	0.9301014759852343	0.1550925696233366	-0.2356123791866443	-0.2053587961385366	-0.5010664295651932	0.3676426962403581	0.367642696240791	0.1152958893698075	0.1744827322818925	0.1623803355952692	0.07566597620381363	-0.09612360318656658	0.06669058049229705	0.04031694866573784	-0.2483877496856912	-0.007343080089901018	-0.1055644910502522	0.7487812657453387	-0.4893227311596144	-0.4893227311595781	0.1314126797669434	9.781992474895522e-05	-0.1825029005946576	-0.06420636537541041	-0.009891830295621561	-0.005878088050255431	0.01339100488104135	-0.1822584796166407	-0.01515808396793492	-0.04789443266123573	0.1072089819150524	-30.20111942199848	-50.97672222734469	-24.63804812301335	-1.461988707566829	4.806523003450252	-656.2833484429817	46.44570575264025	-0.09128430969693861	-0.03467731534413532	-0.05496064656393296	0.07591764360374315	-0.03968232939707987	-0.06206561523200078	0.2112802349902234	-0.1177046372863219	-0.1177046372579957	0.1465103764801469	0.002984583587074539	-0.1439259428779805	-0.07979834176729581	2.524767144927854e-08	1.479340692941585e-08	-1.796073597639025e-07	1.516961830641929e-07	1.020783941117437e-08	4.010441060938484e-08	-1.965847448136465e-07
1.54	0.1009427422631612	0.1256823309096212	0.9305018301813623	0.1526129448332123	-0.2356876459366354	-0.2064173354046317	-0.4935690986231744	0.3627444152681653	0.3627444152685834	0.1166168379393646	0.1744836852087851	0.1605484451422192	0.07502022500640447	-0.096979260721341	0.06630410699175297	0.03974742158230837	-0.2475050667877591	-0.00771195927672593	-0.1061279856031312	0.750577517418308	-0.4902594407161461	-0.490259440715921	0.1327641555731994	9.248808665906876e-05	-0.1838509180440923	-0.06493800844895896	-0.007124885733738612	-0.007671737829313413	0.01335469413172257	-0.182860412476169	-0.01274531828792503	-0.04883451326372443	0.1042391469871042	-30.23076882992381	-50.22971878150163	-24.89385096156012	-1.445969735303535	4.641588586050638	-655.7737042933483	46.65145355687347	-0.08053629588024784	-0.04274178500385267	-0.05901276858519294	0.1033246520424702	-0.03080318191070342	-0.04958815842700625	0.1485366037757475	-0.06780009889657093	-0.06780009889656773	0.1163145973808289	-0.007539384733344962	-0.123843518081496	-0.06163461900731454	2.602695672805987e-08	1.536756637344275e-08	-1.864647776982681e-07	1.544129593371848e-07	1.041860656574232e-08	4.269961551751425e-08	-2.019668495570022e-07
1.55	0.09996923125267938	0.1263431259870851	0.9308963095273071	0.1501430478606154	-0.235766643876125	-0.2074810824723941	-0.486057056813497	0.3578389405690985	0.35783894056951	0.1179508965447843	0.1744846031290592	0.1587037942306727	0.07436733918012731	-0.0977020321572815	0.06584254397590808	0.0391426402932897	-0.2464420391034793	-0.008088620422662332	-0.1066054612722107	0.7517233221046277	-0.4907612091956625	-0.490761209195642	0.1340327544429434	9.029472436207031e-05	-0.1850539043064936	-0.06563217603812399	-0.004317831975884333	-0.009559527386017059	0.01330900303908483	-0.1835879643832614	-0.01018258407572369	-0.04982697829338987	0.1012514906151805	-30.25795031972601	-49.44048162114614	-25.16680709371521	-1.425162716781727	4.453783264887112	-655.310243268567	46.84845061833478	-0.06501040799468362	-0.04971608620748807	-0.06207261305019157	0.1126363523720997	-0.04124199685735805	-0.04440208870950731	0.08147403925916863	-0.03022719067619513	-0.03022719070686748	0.1298946916241548	0.003348373554646885	-0.114717474927858	-0.07227308291435702	2.68241826043752e-08	1.593763694934225e-08	-1.934708313472852e-07	1.566444081101939e-07	1.063985243079304e-08	4.512023920664669e-08	-2.069934303223585e-07
1.56	0.09898911995973179	0.1269989349291242	0.9312845686995633	0.1476847500700139	-0.2358494373102583	-0.20854911926036	-0.4785367826293163	0.3529306757916022	0.3529306757919974	0.1192971935708903	0.1744854806528061	0.1568478751975804	0.07370771862714988	-0.09829931721497794	0.06530687990678892	0.03850338684464579	-0.2451852303891442	-0.008471058205490305	-0.1069859296437333	0.752223992318903	-0.4908174564030606	-0.4908174564032445	0.1352118397068046	8.440878336670333e-05	-0.1861045423532321	-0.06628495378901904	-0.001510778218025474	-0.01144731694271542	0.01326331194640822	-0.1843155162903509	-0.007619849863520784	-0.05081944332304731	0.09826383424325932	-30.28270117041806	-48.65080996532734	-25.43769502549332	-1.40696101579997	4.258490080169834	-654.8487675513053	47.07006611617865	-0.05543902023138868	-0.05756199565874542	-0.06590720051024149	0.1420808580535324	-0.03195850928902055	-0.0301866989155927	0.01950970936692092	0.0213041555271057	0.02130415552710601	0.09841187620427885	-0.008277900473009631	-0.09337387494898731	-0.05335665135333625	2.755200003658941e-08	1.644793343346785e-08	-2.000671150416146e-07	1.581726679670363e-07	1.086446593739773e-08	4.721557668436753e-08	-2.113051723271172e-07
1.57	0.09800368977756921	0.1276490227631482	0.9316662747141272	0.1452399343401538	-0.2359360725206549	-0.2096205181685384	-0.4710147649572291	0.3480240432279563	0.3480240432278415	0.1206548052295426	0.1744863047371195	0.1549822093206035	0.07304179283059604	-0.09876511634204038	0.06469874436135367	0.03783275751373907	-0.2437466409723134	-0.008856263081381316	-0.1072769568592755	0.7520699005372238	-0.4904344895255218	-0.4904344895255056	0.1362937575901068	7.886697610809198e-05	-0.1870021103629969	-0.06689210422069616	0.001338279924070373	-0.01342563080264004	0.01320578574776748	-0.185180687234238	-0.004895400030993968	-0.05186941526416095	0.09525757662003945	-30.30505148154851	-47.81571240011201	-25.72763214997156	-1.383406135230302	4.038565512983562	-654.4381465916066	47.27979445722801	-0.03890919969720641	-0.06422846960512749	-0.06838960721488986	0.1494403990228247	-0.04184042994387551	-0.02599568802051921	-0.04931485604454845	0.05797226152380246	0.05797226155384839	0.1105537571725863	0.003104777227430574	-0.08396474698772483	-0.06319321090770216	2.819305691367722e-08	1.688351230287609e-08	-2.061511862925845e-07	1.588219416786704e-07	1.109328899594487e-08	4.890430639782386e-08	-2.14723365881129e-07
1.58	0.09701424983598803	0.1282926714145943	0.9320411246738152	0.1428104429875692	-0.2360265675704503	-0.2106943143399023	-0.4634975774497803	0.3431234761946217	0.3431234761939917	0.1220227304696024	0.1744870328229662	0.1531083644669293	0.07237003573535901	-0.09910126909925153	0.06401904339118362	0.03713217586944847	-0.2421203549344831	-0.00924302608546399	-0.1074653822806969	0.751257959391168	-0.489604350341722	-0.4896043503415055	0.1372745559845831	6.520909203875378e-05	-0.1877403376926631	-0.06745121352568489	0.004187338066167934	-0.01540394466255836	0.01314825954909046	-0.1860458581781227	-0.002170950198465341	-0.05291938720526534	0.09225131899681931	-30.32477696347243	-46.97975203360485	-26.01545635718014	-1.362429125538818	3.810927484119043	-654.0231462224928	47.51314619347028	-0.02950974626107477	-0.07187508060575624	-0.0718976631870173	0.179620182253441	-0.03227013492735507	-0.009666340091417269	-0.1120601635083585	0.1107386167793524	0.1107386167793475	0.07818797843911747	-0.009901115835145774	-0.06150573892933549	-0.04374842601567441	2.878339042608011e-08	1.721219305516205e-08	-2.117328354673304e-07	1.590342036939163e-07	1.137148253902565e-08	5.04473970329899e-08	-2.174830059760436e-07
